<mxfile host="app.diagrams.net" agent="Mozilla/5.0 (Windows NT 10.0; Win64; x64) AppleWebKit/537.36 (KHTML, like Gecko) Chrome/131.0.0.0 Safari/537.36" version="24.8.6">
  <diagram name="Page-1" id="PDqo2CiNrErUDa1q0EqM">
    <mxGraphModel dx="880" dy="478" grid="1" gridSize="10" guides="1" tooltips="1" connect="1" arrows="1" fold="1" page="1" pageScale="1" pageWidth="850" pageHeight="1100" math="0" shadow="0">
      <root>
        <mxCell id="0" />
        <mxCell id="1" parent="0" />
        <mxCell id="JlQaa6_ZE3EbBsVdtjhu-1" value="" style="shape=umlLifeline;perimeter=lifelinePerimeter;whiteSpace=wrap;html=1;container=1;dropTarget=0;collapsible=0;recursiveResize=0;outlineConnect=0;portConstraint=eastwest;newEdgeStyle={&quot;curved&quot;:0,&quot;rounded&quot;:0};participant=umlActor;" vertex="1" parent="1">
          <mxGeometry x="140" y="60" width="40" height="90" as="geometry" />
        </mxCell>
        <mxCell id="JlQaa6_ZE3EbBsVdtjhu-2" value="User" style="text;html=1;align=center;verticalAlign=middle;resizable=0;points=[];autosize=1;strokeColor=none;fillColor=none;" vertex="1" parent="1">
          <mxGeometry x="90" y="70" width="50" height="30" as="geometry" />
        </mxCell>
        <mxCell id="JlQaa6_ZE3EbBsVdtjhu-3" value=":System" style="shape=umlLifeline;perimeter=lifelinePerimeter;whiteSpace=wrap;html=1;container=1;dropTarget=0;collapsible=0;recursiveResize=0;outlineConnect=0;portConstraint=eastwest;newEdgeStyle={&quot;curved&quot;:0,&quot;rounded&quot;:0};" vertex="1" parent="1">
          <mxGeometry x="260" y="60" width="100" height="90" as="geometry" />
        </mxCell>
        <mxCell id="JlQaa6_ZE3EbBsVdtjhu-4" value="" style="html=1;points=[[0,0,0,0,5],[0,1,0,0,-5],[1,0,0,0,5],[1,1,0,0,-5]];perimeter=orthogonalPerimeter;outlineConnect=0;targetShapes=umlLifeline;portConstraint=eastwest;newEdgeStyle={&quot;curved&quot;:0,&quot;rounded&quot;:0};" vertex="1" parent="1">
          <mxGeometry x="155" y="150" width="10" height="120" as="geometry" />
        </mxCell>
        <mxCell id="JlQaa6_ZE3EbBsVdtjhu-5" value="" style="html=1;points=[[0,0,0,0,5],[0,1,0,0,-5],[1,0,0,0,5],[1,1,0,0,-5]];perimeter=orthogonalPerimeter;outlineConnect=0;targetShapes=umlLifeline;portConstraint=eastwest;newEdgeStyle={&quot;curved&quot;:0,&quot;rounded&quot;:0};" vertex="1" parent="1">
          <mxGeometry x="305" y="150" width="10" height="120" as="geometry" />
        </mxCell>
        <mxCell id="JlQaa6_ZE3EbBsVdtjhu-6" value="" style="edgeStyle=elbowEdgeStyle;fontSize=12;html=1;endArrow=blockThin;endFill=1;rounded=0;" edge="1" parent="1">
          <mxGeometry width="160" relative="1" as="geometry">
            <mxPoint x="165" y="160" as="sourcePoint" />
            <mxPoint x="300" y="160" as="targetPoint" />
          </mxGeometry>
        </mxCell>
        <mxCell id="JlQaa6_ZE3EbBsVdtjhu-7" value="feedback/error" style="html=1;verticalAlign=bottom;endArrow=open;dashed=1;endSize=8;curved=0;rounded=0;" edge="1" parent="1">
          <mxGeometry relative="1" as="geometry">
            <mxPoint x="300" y="250" as="sourcePoint" />
            <mxPoint x="165" y="250" as="targetPoint" />
          </mxGeometry>
        </mxCell>
        <mxCell id="JlQaa6_ZE3EbBsVdtjhu-8" value="register()" style="text;html=1;align=center;verticalAlign=middle;resizable=0;points=[];autosize=1;strokeColor=none;fillColor=none;" vertex="1" parent="1">
          <mxGeometry x="185" y="128" width="70" height="30" as="geometry" />
        </mxCell>
        <mxCell id="JlQaa6_ZE3EbBsVdtjhu-12" value="" style="endArrow=none;dashed=1;html=1;rounded=0;" edge="1" parent="1">
          <mxGeometry width="50" height="50" relative="1" as="geometry">
            <mxPoint x="159.5" y="354" as="sourcePoint" />
            <mxPoint x="159.5" y="274" as="targetPoint" />
          </mxGeometry>
        </mxCell>
        <mxCell id="JlQaa6_ZE3EbBsVdtjhu-13" value="" style="endArrow=none;dashed=1;html=1;rounded=0;" edge="1" parent="1">
          <mxGeometry width="50" height="50" relative="1" as="geometry">
            <mxPoint x="309.5" y="352" as="sourcePoint" />
            <mxPoint x="309.5" y="272" as="targetPoint" />
          </mxGeometry>
        </mxCell>
        <mxCell id="JlQaa6_ZE3EbBsVdtjhu-14" value="" style="html=1;points=[[0,0,0,0,5],[0,1,0,0,-5],[1,0,0,0,5],[1,1,0,0,-5]];perimeter=orthogonalPerimeter;outlineConnect=0;targetShapes=umlLifeline;portConstraint=eastwest;newEdgeStyle={&quot;curved&quot;:0,&quot;rounded&quot;:0};" vertex="1" parent="1">
          <mxGeometry x="155" y="352" width="10" height="120" as="geometry" />
        </mxCell>
        <mxCell id="JlQaa6_ZE3EbBsVdtjhu-15" value="" style="html=1;points=[[0,0,0,0,5],[0,1,0,0,-5],[1,0,0,0,5],[1,1,0,0,-5]];perimeter=orthogonalPerimeter;outlineConnect=0;targetShapes=umlLifeline;portConstraint=eastwest;newEdgeStyle={&quot;curved&quot;:0,&quot;rounded&quot;:0};" vertex="1" parent="1">
          <mxGeometry x="305" y="352" width="10" height="120" as="geometry" />
        </mxCell>
        <mxCell id="JlQaa6_ZE3EbBsVdtjhu-16" value="" style="edgeStyle=elbowEdgeStyle;fontSize=12;html=1;endArrow=blockThin;endFill=1;rounded=0;" edge="1" parent="1">
          <mxGeometry width="160" relative="1" as="geometry">
            <mxPoint x="165" y="362" as="sourcePoint" />
            <mxPoint x="300" y="362" as="targetPoint" />
          </mxGeometry>
        </mxCell>
        <mxCell id="JlQaa6_ZE3EbBsVdtjhu-17" value="success/fail" style="html=1;verticalAlign=bottom;endArrow=open;dashed=1;endSize=8;curved=0;rounded=0;" edge="1" parent="1">
          <mxGeometry relative="1" as="geometry">
            <mxPoint x="300" y="452" as="sourcePoint" />
            <mxPoint x="165" y="452" as="targetPoint" />
          </mxGeometry>
        </mxCell>
        <mxCell id="JlQaa6_ZE3EbBsVdtjhu-18" value="login()" style="text;html=1;align=center;verticalAlign=middle;resizable=0;points=[];autosize=1;strokeColor=none;fillColor=none;" vertex="1" parent="1">
          <mxGeometry x="190" y="330" width="60" height="30" as="geometry" />
        </mxCell>
        <mxCell id="JlQaa6_ZE3EbBsVdtjhu-19" value="" style="endArrow=none;dashed=1;html=1;rounded=0;entryX=0;entryY=1;entryDx=0;entryDy=-5;entryPerimeter=0;" edge="1" parent="1">
          <mxGeometry width="50" height="50" relative="1" as="geometry">
            <mxPoint x="159" y="552" as="sourcePoint" />
            <mxPoint x="159" y="469" as="targetPoint" />
          </mxGeometry>
        </mxCell>
        <mxCell id="JlQaa6_ZE3EbBsVdtjhu-20" value="" style="shape=umlDestroy;whiteSpace=wrap;html=1;strokeWidth=3;targetShapes=umlLifeline;" vertex="1" parent="1">
          <mxGeometry x="145" y="500" width="30" height="30" as="geometry" />
        </mxCell>
      </root>
    </mxGraphModel>
  </diagram>
</mxfile>
